<svg width="55" height="54" viewBox="0 0 55 54" fill="none" xmlns="http://www.w3.org/2000/svg">
<g clip-path="url(#clip0_28_83)">
<rect x="7" y="14" width="41" height="25" fill="white"/>
<path d="M24.8682 0.122097C18.0576 0.807644 11.9668 3.79241 7.29395 8.70725C3.4375 12.7678 1.04199 17.8198 0.193359 23.6838C0.0107422 24.9284 0.0107422 29.0838 0.193359 30.3284C1.11719 36.6881 3.78125 41.951 8.28223 46.2752C12.6113 50.4518 17.8428 52.9409 24.1162 53.8162C25.3945 53.9955 29.6162 53.985 30.9375 53.8057C37.2324 52.9514 42.6572 50.3147 47.0186 45.9799C51.3584 41.6662 53.9043 36.551 54.8066 30.3284C54.9893 29.0838 54.9893 24.9284 54.8066 23.6838C54.291 20.1295 53.2383 16.9233 51.6377 14.0862C50.3809 11.8397 48.9199 9.92014 47.0186 8.03225C42.7432 3.78186 37.4258 1.14514 31.3135 0.259207C29.9922 0.069363 26.1787 -0.015012 24.8682 0.122097ZM17.4561 17.6405C18.5732 18.21 19.1641 19.1592 19.1641 20.4143C19.1748 21.6588 18.5195 22.5869 17.252 23.167C16.0703 23.7049 15.6943 23.3991 16.5215 22.5448C17.3594 21.6694 17.4561 21.4268 17.4561 20.2034C17.4561 18.9588 17.2734 18.5369 16.6074 18.21C16.2529 18.0412 16.124 18.0307 15.6406 18.1362C13.2666 18.653 10.4629 22.8928 10.001 26.6475C9.625 29.7272 11.1504 32.1741 13.46 32.1741C14.5986 32.1741 16.4141 31.383 17.5205 30.4022C18.0791 29.8959 18.1543 29.7905 18.1543 29.4319C18.1543 28.3244 19.0459 26.7213 20.0449 26.0252C21.4629 25.0444 23.2998 24.96 24.1914 25.8459C24.5352 26.1834 24.5996 26.31 24.5996 26.6791C24.5996 26.9217 24.5459 27.217 24.4922 27.333C24.2451 27.7655 23.4395 27.9764 22.8379 27.7444C22.4941 27.6178 22.4834 27.3752 22.8057 27.2065C23.5791 26.8057 23.1816 26.0569 22.1934 26.0569C21.4951 26.0569 20.8613 26.426 20.4316 27.0799C19.5186 28.4932 19.5723 30.3073 20.5498 30.7819C21.1191 31.0561 21.7637 30.4549 22.2363 29.1998C22.5049 28.4826 22.9561 28.0608 23.4717 28.0608C24.0088 28.0608 24.1162 28.2612 23.9658 28.9784C23.8047 29.7905 23.8154 30.3284 24.0088 30.4866C24.1377 30.592 24.2773 30.5604 24.7285 30.3389C25.9424 29.7377 25.9531 29.7061 26.3184 27.7444C26.6191 26.1307 26.6621 25.983 26.9629 25.7088C27.2207 25.4873 27.3926 25.4241 27.7686 25.4241C28.5098 25.4241 28.5957 25.7826 28.1875 27.217C28.166 27.3014 28.4775 27.0588 28.8965 26.6686C29.6592 25.9514 30.6582 25.3819 31.3887 25.2553C31.7217 25.2026 31.8291 25.2342 32.0547 25.4662C32.4092 25.8037 32.4092 25.9092 32.0117 27.1748C31.8291 27.7549 31.5605 28.683 31.4102 29.2631C31.1631 30.2229 31.1523 30.3178 31.3135 30.5498C31.3994 30.6869 31.5605 30.803 31.668 30.803C32.0332 30.803 32.9355 30.2967 33.5264 29.7694L34.1279 29.2315L34.1924 28.0924C34.2354 27.4701 34.3213 26.7741 34.375 26.5526C34.6113 25.7299 35.5674 25.0444 36.0938 25.3186C36.3623 25.4557 36.3623 25.4241 36.04 26.6053C35.8897 27.1432 35.7393 27.9659 35.707 28.4299C35.6426 29.2948 35.793 30.4444 35.9971 30.6448C36.1367 30.7713 37.5332 29.3686 37.8662 28.7674L38.0703 28.3877L37.7695 28.1135C36.8242 27.2487 36.7813 25.308 37.6943 24.3694C38.6504 23.3885 40.1113 23.726 40.3477 24.9811C40.4443 25.4768 40.2617 26.5209 39.9824 27.0905L39.7676 27.5334H40.0791C40.6055 27.5334 41.0459 27.2803 41.8731 26.4893C42.8936 25.5295 43.5811 25.192 44.6875 25.1287C45.418 25.0866 45.6006 25.1182 46.1162 25.3502C46.5244 25.5295 46.7715 25.7194 46.8789 25.9409C47.0723 26.2994 47.1045 26.9217 46.9434 27.2276C46.6856 27.6916 45.6006 27.9131 45.1602 27.5862C44.9668 27.4385 44.9668 27.4174 45.3106 27.1432C45.7295 26.7846 45.751 26.4682 45.375 26.1729C45.042 25.9092 44.4189 25.8776 43.9033 26.0991C43.4092 26.2994 42.6895 27.1326 42.4639 27.776C42.1953 28.5565 42.2061 29.7905 42.4961 30.2756C43.1084 31.3092 43.9678 30.9401 44.7305 29.3159C45.1387 28.4299 45.5361 28.0608 46.0732 28.0608C46.5674 28.0608 46.6641 28.335 46.46 29.1682C46.374 29.5479 46.2236 30.0119 46.127 30.1912C45.7832 30.8451 45.9981 31.8998 46.5996 32.5221C46.8682 32.7963 46.8682 32.8174 46.6963 32.9967C46.5137 33.1655 46.4814 33.1549 46.0088 32.9123C45.3643 32.5748 44.9131 32.1319 44.666 31.5623L44.4619 31.1194L43.9678 31.4569C43.5488 31.7627 43.3984 31.8049 42.8184 31.8049C42.2813 31.8049 42.0664 31.7522 41.7441 31.5412C40.9063 30.9823 40.4981 30.0119 40.6484 28.894L40.7236 28.3666L40.3799 28.5354C40.1973 28.6303 39.7998 28.7358 39.4883 28.7674C38.9619 28.8201 38.9082 28.8518 38.5107 29.4002C37.9092 30.2123 36.5557 31.4569 35.9756 31.7311C35.0088 32.1951 34.708 32.0053 34.375 30.708L34.2568 30.244L33.9131 30.5709C33.333 31.1088 32.2803 31.71 31.582 31.8998C30.959 32.0791 30.8838 32.0791 30.4541 31.9104C29.7881 31.6678 29.6055 31.2565 29.6699 30.0752C29.7022 29.3897 29.8096 28.894 30.1104 28.0608C30.3145 27.4596 30.4648 26.9217 30.4434 26.8795C30.3145 26.6686 30.0029 26.8479 29.2832 27.5229C28.3164 28.451 27.8438 29.2104 27.543 30.36C27.2744 31.3198 27.0273 31.6889 26.4473 31.9315C25.8672 32.1741 25.5127 31.8576 25.6416 31.2248C25.6738 31.0455 25.6738 30.9084 25.6416 30.9084C25.6201 30.9084 25.3193 31.0772 24.9756 31.2776C24.1484 31.7627 23.3857 32.0053 22.9346 31.9209C22.6016 31.8576 22.2148 31.5201 22.1074 31.2037C22.0859 31.1405 21.9033 31.2459 21.6992 31.4252C21.3232 31.7627 20.7969 31.9631 20.292 31.9631C19.873 31.9631 18.9385 31.4569 18.6699 31.0877C18.541 30.8979 18.4229 30.7291 18.4014 30.708C18.3906 30.6869 18.0684 30.9506 17.7031 31.2881C16.0381 32.8491 14.2119 33.619 12.3857 33.5241C11.6445 33.4819 11.3867 33.4186 10.7207 33.0916C9.32422 32.4166 8.35742 31.2143 7.99219 29.685C7.73438 28.5987 7.83106 26.4366 8.20703 25.1076C9.22754 21.5323 11.8916 18.4104 14.7168 17.4928C15.5654 17.2186 16.7363 17.2819 17.4561 17.6405Z" fill="#9C84C2"/>
<path d="M38.1563 24.8229C37.8233 25.2026 37.9844 26.3522 38.4463 26.9112L38.6504 27.1643L38.7793 26.6897C38.9512 26.0674 38.8653 25.1709 38.6182 24.8967C38.3926 24.6542 38.3067 24.6331 38.1563 24.8229Z" fill="#9C84C2"/>
</g>
<defs>
<clipPath id="clip0_28_83">
<rect width="55" height="54" fill="white"/>
</clipPath>
</defs>
</svg>
