<svg width="55" height="54" viewBox="0 0 55 54" fill="none" xmlns="http://www.w3.org/2000/svg">
<ellipse cx="27.5" cy="27" rx="27.5" ry="27" fill="#9C84C2"/>
<path d="M15.7427 15.153C14.5214 15.4086 13.2552 16.3975 12.7286 17.5198C12.3589 18.3087 12.1236 21.3533 12.3813 22.0311C12.4709 22.2534 13.3897 22.7534 17.1993 24.6201C19.7988 25.8869 21.9165 26.9536 21.9165 26.998C21.9165 27.0314 19.7876 28.1092 17.1881 29.3981L12.4485 31.7427L12.3477 32.4983C12.2916 32.965 12.2916 33.7761 12.3589 34.5984C12.4933 36.2318 12.7286 36.7874 13.625 37.6763C14.3421 38.3874 15.0144 38.743 15.9332 38.8875C16.8407 39.043 34.8131 39.0319 35.5974 38.8875C37.1212 38.5986 38.4994 37.4318 38.9476 36.054C39.026 35.8095 39.1269 35.5762 39.1605 35.5206C39.2053 35.4762 40.4602 36.0429 41.9504 36.7762C43.4519 37.5096 44.7068 38.1096 44.7628 38.1096C44.8188 38.1096 44.8973 38.0319 44.9309 37.9319C45.0429 37.6541 45.0093 34.8873 44.8973 34.6762C44.8412 34.5761 41.379 32.8205 37.2221 30.776C33.0539 28.7314 29.6477 27.0314 29.6477 26.998C29.6477 26.9647 30.8242 26.3647 32.2584 25.6757C39.407 22.1867 44.7292 19.5199 44.8637 19.3532C44.9757 19.2088 44.9981 18.7643 44.9757 17.5865C44.9533 16.7198 44.8973 15.9753 44.8525 15.9308C44.8076 15.8753 43.5303 16.4531 42.0177 17.1976C40.505 17.9421 39.2277 18.531 39.1605 18.4976C39.1044 18.4532 39.0596 18.3643 39.0596 18.2865C39.0596 17.9087 38.3313 16.742 37.7711 16.242C37.0652 15.5975 36.4265 15.2642 35.5974 15.1086C34.6898 14.9419 16.5606 14.9752 15.7427 15.153ZM35.4853 18.6421C35.7879 18.9088 35.8551 19.0643 35.8999 19.5643L35.9447 20.1644L31.0819 22.5645C28.4152 23.8868 26.1182 24.9979 25.9838 25.0424C25.8045 25.0979 24.5047 24.5201 20.6952 22.6534L15.6418 20.1866V19.6421C15.6418 19.3421 15.6979 18.9977 15.7539 18.8865C16.0564 18.331 15.8211 18.3421 25.8045 18.331H35.138L35.4853 18.6421ZM30.9026 31.3538L35.9223 33.8206V34.2539C35.9223 34.8206 35.6534 35.3762 35.2949 35.5429C35.0932 35.6318 32.4153 35.6651 25.6588 35.6651H16.2917L15.9668 35.3428C15.6867 35.0651 15.6418 34.9317 15.6418 34.4206V33.8317L20.6615 31.3649C23.4179 30.0093 25.7149 28.8981 25.7709 28.8981C25.8269 28.887 28.1351 29.9982 30.9026 31.3538Z" fill="white"/>
</svg>
