<svg width="538" height="538" viewBox="0 0 538 538" fill="none" xmlns="http://www.w3.org/2000/svg">
<circle cx="269" cy="269" r="269" fill="#9C84C2"/>
<path fill-rule="evenodd" clip-rule="evenodd" d="M147 94.8438H196.695L194.535 102.765L193.094 367.033C206.538 272.463 256.762 84.4747 350.102 89.0832C375.07 91.0034 419.532 109.389 397.637 167.572C388.274 188.694 356.296 232.667 303.288 239.579C336.898 241.98 404.695 265.502 407 340.39C406.76 375.674 385.681 446.53 303.288 447.682C303.288 448.258 200.296 447.922 147.72 447.682L150.601 438.321L149.161 102.765L147 94.8438ZM319.853 130.128C280.097 136.464 250.232 203.336 239.909 233.819C329.216 240.3 367.388 189.894 367.388 189.174C387.554 154.553 368.108 140.929 367.388 138.769C348.662 123.647 325.615 129.209 319.853 130.128ZM234.147 247.5C212.252 302.802 197.656 397.757 193.094 438.321H288.163C317.693 433.28 332.097 418.879 340.019 411.678C405.56 332.469 340.019 273.974 326.335 261.902C301.848 240.3 234.867 247.5 234.147 247.5Z" fill="url(#paint0_linear_16_28)"/>
<defs>
<linearGradient id="paint0_linear_16_28" x1="355" y1="96.5" x2="156.5" y2="458" gradientUnits="userSpaceOnUse">
<stop stop-color="#E8CEE8"/>
<stop offset="1" stop-color="#DAEFFF"/>
</linearGradient>
</defs>
</svg>
